<?xml version="1.0" standalone="no"?>
<!DOCTYPE svg PUBLIC "-//W3C//DTD SVG 20010904//EN"
 "http://www.w3.org/TR/2001/REC-SVG-20010904/DTD/svg10.dtd">
<svg version="1.0" xmlns="http://www.w3.org/2000/svg"
 width="512.000000pt" height="512.000000pt" viewBox="0 0 512.000000 512.000000"
 preserveAspectRatio="xMidYMid meet">

<g transform="translate(0.000000,512.000000) scale(0.100000,-0.100000)"
fill="#000000" stroke="none">
<path d="M521 4784 c-169 -45 -301 -180 -346 -351 -23 -87 -22 -2700 0 -2788
45 -172 179 -305 352 -350 44 -12 120 -15 325 -15 l267 0 3 -429 c3 -416 4
-430 24 -457 39 -52 71 -69 133 -69 48 0 64 5 97 29 21 17 292 231 600 478
l562 448 999 0 c1098 0 1055 -2 1174 61 115 62 214 197 239 328 6 35 10 520
10 1380 0 1159 -2 1334 -15 1386 -45 172 -179 305 -352 350 -85 22 -3989 21
-4072 -1z m3405 -1290 c53 -39 69 -71 69 -134 0 -63 -16 -95 -69 -134 -27 -21
-32 -21 -1344 -24 -905 -2 -1328 0 -1354 8 -101 29 -140 168 -71 251 52 62
-33 59 1415 56 1323 -2 1327 -2 1354 -23z m-1280 -640 c53 -39 69 -71 69 -134
0 -63 -16 -95 -69 -134 -27 -21 -39 -21 -704 -24 -457 -2 -689 0 -714 8 -101
29 -140 168 -71 251 51 61 25 59 775 56 676 -2 687 -2 714 -23z"/>
</g>
</svg>
