<?xml version="1.0" encoding="UTF-8" standalone="no"?> <svg xmlns="http://www.w3.org/2000/svg" viewBox="0 0 32 32"><title>Electronic Store</title><g id="Electronic_Store" data-name="Electronic Store"><path d="M28,11.184V7a3,3,0,0,0-3-3H7A3,3,0,0,0,4,7v7a2,2,0,0,0-2,2V26a2,2,0,0,0,2,2H27a3,3,0,0,0,3-3V14A3,3,0,0,0,28,11.184ZM6,7A1,1,0,0,1,7,6H25a1,1,0,0,1,1,1v4H20a3,3,0,0,0-3,3v4H14a1,1,0,0,0,0,2h3v2H11V16a2,2,0,0,0-2-2H6ZM4,16H9V26H4Zm7,10V24h2v2Zm4-2h2v1a2.966,2.966,0,0,0,.184,1H15Zm13,1a1,1,0,0,1-1,1H20a1,1,0,0,1-1-1V14a1,1,0,0,1,1-1h7a1,1,0,0,1,1,1Z"/><path d="M25,23H22a1,1,0,0,0,0,2h3a1,1,0,0,0,0-2Z"/></g></svg>