<?xml version="1.0" encoding="UTF-8" standalone="no"?> <svg id="Layer_1" data-name="Layer 1" xmlns="http://www.w3.org/2000/svg" xmlns:xlink="http://www.w3.org/1999/xlink" viewBox="0 0 512 512"><defs><style>.cls-1{fill:url(#linear-gradient);}.cls-2{fill:url(#linear-gradient-2);}</style><linearGradient id="linear-gradient" x1="78" y1="78" x2="416.927" y2="416.927" gradientUnits="userSpaceOnUse"><stop offset="0" stop-color="#e85155"/><stop offset="1" stop-color="#c21d2c"/></linearGradient><linearGradient id="linear-gradient-2" x1="168.964" y1="168.964" x2="318.972" y2="318.972" gradientUnits="userSpaceOnUse"><stop offset="0" stop-color="#fff"/><stop offset="1" stop-color="#f2eded"/></linearGradient></defs><title>Discount</title><path class="cls-1" d="M480.641,228.773,443.51,185.206a20.5,20.5,0,0,1-4.859-11.742l-4.557-57.058a41.8,41.8,0,0,0-38.5-38.5l-57.058-4.552a20.539,20.539,0,0,1-11.75-4.865L283.224,31.362v0a41.8,41.8,0,0,0-54.448,0L185.214,68.484a20.522,20.522,0,0,1-11.75,4.868L116.406,77.9a41.806,41.806,0,0,0-38.505,38.5l-4.547,57.055a20.518,20.518,0,0,1-4.87,11.747L31.359,228.773a41.807,41.807,0,0,0,0,54.454L68.49,326.794a20.5,20.5,0,0,1,4.859,11.742l4.557,57.058a41.8,41.8,0,0,0,38.5,38.5l57.058,4.552a20.539,20.539,0,0,1,11.75,4.865l43.562,37.128a41.8,41.8,0,0,0,54.448,0l43.562-37.122a20.522,20.522,0,0,1,11.75-4.868l57.058-4.552a41.806,41.806,0,0,0,38.5-38.5l4.547-57.055a20.518,20.518,0,0,1,4.87-11.747l37.125-43.565A41.807,41.807,0,0,0,480.641,228.773Z"/><path class="cls-2" d="M202.667,234.667a32,32,0,1,1,32-32A32.035,32.035,0,0,1,202.667,234.667Zm0-42.667a10.667,10.667,0,1,0,10.666,10.667A10.679,10.679,0,0,0,202.667,192Z"/><path class="cls-2" d="M309.333,341.333a32,32,0,1,1,32-32A32.035,32.035,0,0,1,309.333,341.333Zm0-42.666A10.667,10.667,0,1,0,320,309.333,10.678,10.678,0,0,0,309.333,298.667Z"/><path class="cls-2" d="M181.333,341.333a10.667,10.667,0,0,1-7.541-18.208L323.125,173.792a10.665,10.665,0,1,1,15.083,15.083L188.875,338.208A10.628,10.628,0,0,1,181.333,341.333Z"/></svg>