<svg version="1.1" xmlns="http://www.w3.org/2000/svg" xmlns:xlink="http://www.w3.org/1999/xlink" x="0px" y="0px" width="512px" height="512px" viewBox="0 0 512 512" style="enable-background:new 0 0 512 512;" xml:space="preserve">
<g id="E533_x2C__Complete_x2C__task">
	<g>
		<g>
			<path style="fill: rgb(0, 0, 0);" d="M296,66c0-22.09-17.91-40-40-40s-40,17.91-40,40h-70v20v40v20h220v-20V86V66H296z" id="id_101"></path>
			<path style="fill: rgb(255, 255, 255);" d="M256,76c11.05,0,20,8.95,20,20s-8.95,20-20,20s-20-8.95-20-20S244.95,76,256,76z" id="id_102"></path>
			<polygon style="fill: rgb(0, 0, 0);" points="446,86 446,486 66,486 66,86 146,86 146,126 104,126 104,446 408,446 408,126 366,126 
				366,86 			" id="id_103"></polygon>
			<polygon style="fill: rgb(255, 255, 255);" points="408,126 408,446 104,446 104,126 146,126 146,146 366,146 366,126 			" id="id_104"></polygon>
			<path style="fill: rgb(0, 0, 0);" d="M206.001,396c-0.187,0-0.375-0.005-0.563-0.016c-3.308-0.187-6.309-1.999-8.013-4.84l-30-50
				c-2.842-4.735-1.306-10.878,3.43-13.72c4.735-2.841,10.878-1.307,13.72,3.431L207,368.23l121.057-158.305
				c3.354-4.387,9.633-5.223,14.018-1.869c4.388,3.354,5.225,9.631,1.869,14.018l-130,170C212.045,394.557,209.104,396,206.001,396z
				" id="id_105"></path>
		</g>
	</g>
</g>
<g id="Layer_1">
</g>
</svg>