<?xml version="1.0" encoding="UTF-8" standalone="no"?> <svg width="24" height="24" viewBox="0 0 24 24" fill="none" xmlns="http://www.w3.org/2000/svg">
<path fill-rule="evenodd" clip-rule="evenodd" d="M12 2C6.47715 2 2 6.47715 2 12C2 17.5228 6.47715 22 12 22C17.5228 22 22 17.5228 22 12C22 11.3779 21.9433 10.7699 21.8351 10.1807C21.7353 9.63747 22.0948 9.11623 22.638 9.01645C23.1812 8.91668 23.7024 9.27614 23.8022 9.81934C23.9322 10.5272 24 11.2561 24 12C24 18.6274 18.6274 24 12 24C5.37258 24 0 18.6274 0 12C0 5.37258 5.37258 0 12 0C14.4133 0 16.6631 0.713464 18.5462 1.94126C19.0088 2.2429 19.1393 2.86247 18.8377 3.3251C18.536 3.78774 17.9165 3.91825 17.4538 3.6166C15.8858 2.59422 14.0138 2 12 2ZM21.7071 5.29289C22.0976 5.68342 22.0976 6.31658 21.7071 6.70711L12.7071 15.7071C12.3166 16.0976 11.6834 16.0976 11.2929 15.7071L7.29289 11.7071C6.90237 11.3166 6.90237 10.6834 7.29289 10.2929C7.68342 9.90237 8.31658 9.90237 8.70711 10.2929L12 13.5858L20.2929 5.29289C20.6834 4.90237 21.3166 4.90237 21.7071 5.29289Z" fill="#293644"/>
</svg>
